<svg xmlns="http://www.w3.org/2000/svg" class="svg-inline--fa fa-globe fa-w-16 fa-2x" width="105px" height="105px" role="img" aria-hidden="true" viewBox="0 0 496 512" data-prefix="fal" data-icon="globe"><path class="" fill="black" d="M 248 8 C 111 8 0 119 0 256 s 111 248 248 248 s 248 -111 248 -248 S 385 8 248 8 Z m 193.2 152 h -82.5 c -9 -44.4 -24.1 -82.2 -43.2 -109.1 c 55 18.2 100.2 57.9 125.7 109.1 Z M 336 256 c 0 22.9 -1.6 44.2 -4.3 64 H 164.3 c -2.7 -19.8 -4.3 -41.1 -4.3 -64 s 1.6 -44.2 4.3 -64 h 167.4 c 2.7 19.8 4.3 41.1 4.3 64 Z M 248 40 c 26.9 0 61.4 44.1 78.1 120 H 169.9 C 186.6 84.1 221.1 40 248 40 Z m -67.5 10.9 c -19 26.8 -34.2 64.6 -43.2 109.1 H 54.8 c 25.5 -51.2 70.7 -90.9 125.7 -109.1 Z M 32 256 c 0 -22.3 3.4 -43.8 9.7 -64 h 90.5 c -2.6 20.5 -4.2 41.8 -4.2 64 s 1.5 43.5 4.2 64 H 41.7 c -6.3 -20.2 -9.7 -41.7 -9.7 -64 Z m 22.8 96 h 82.5 c 9 44.4 24.1 82.2 43.2 109.1 c -55 -18.2 -100.2 -57.9 -125.7 -109.1 Z M 248 472 c -26.9 0 -61.4 -44.1 -78.1 -120 h 156.2 c -16.7 75.9 -51.2 120 -78.1 120 Z m 67.5 -10.9 c 19 -26.8 34.2 -64.6 43.2 -109.1 h 82.5 c -25.5 51.2 -70.7 90.9 -125.7 109.1 Z M 363.8 320 c 2.6 -20.5 4.2 -41.8 4.2 -64 s -1.5 -43.5 -4.2 -64 h 90.5 c 6.3 20.2 9.7 41.7 9.7 64 s -3.4 43.8 -9.7 64 h -90.5 Z" /></svg>