<svg xmlns="http://www.w3.org/2000/svg" class="svg-inline--fa fa-globe fa-w-16 fa-9x" role="img" aria-hidden="true" viewBox="0 0 496 512" data-prefix="fas" data-icon="globe"><path class="" fill="currentColor" d="M 336.5 160 C 322 70.7 287.8 8 248 8 s -74 62.7 -88.5 152 h 177 Z M 152 256 c 0 22.2 1.2 43.5 3.3 64 h 185.3 c 2.1 -20.5 3.3 -41.8 3.3 -64 s -1.2 -43.5 -3.3 -64 H 155.3 c -2.1 20.5 -3.3 41.8 -3.3 64 Z m 324.7 -96 c -28.6 -67.9 -86.5 -120.4 -158 -141.6 c 24.4 33.8 41.2 84.7 50 141.6 h 108 Z M 177.2 18.4 C 105.8 39.6 47.8 92.1 19.3 160 h 108 c 8.7 -56.9 25.5 -107.8 49.9 -141.6 Z M 487.4 192 H 372.7 c 2.1 21 3.3 42.5 3.3 64 s -1.2 43 -3.3 64 h 114.6 c 5.5 -20.5 8.6 -41.8 8.6 -64 s -3.1 -43.5 -8.5 -64 Z M 120 256 c 0 -21.5 1.2 -43 3.3 -64 H 8.6 C 3.2 212.5 0 233.8 0 256 s 3.2 43.5 8.6 64 h 114.6 c -2 -21 -3.2 -42.5 -3.2 -64 Z m 39.5 96 c 14.5 89.3 48.7 152 88.5 152 s 74 -62.7 88.5 -152 h -177 Z m 159.3 141.6 c 71.4 -21.2 129.4 -73.7 158 -141.6 h -108 c -8.8 56.9 -25.6 107.8 -50 141.6 Z M 19.3 352 c 28.6 67.9 86.5 120.4 158 141.6 c -24.4 -33.8 -41.2 -84.7 -50 -141.6 h -108 Z" /></svg>