<svg xmlns="http://www.w3.org/2000/svg" class="svg-inline--fa fa-globe fa-w-16 fa-9x" role="img" aria-hidden="true" viewBox="0 0 496 512" data-prefix="far" data-icon="globe"><path class="" fill="currentColor" d="M 248 8 C 111 8 0 119 0 256 s 111 248 248 248 s 248 -111 248 -248 S 385 8 248 8 Z m 179.3 160 h -67.2 c -6.7 -36.5 -17.5 -68.8 -31.2 -94.7 c 42.9 19 77.7 52.7 98.4 94.7 Z M 248 56 c 18.6 0 48.6 41.2 63.2 112 H 184.8 C 199.4 97.2 229.4 56 248 56 Z M 48 256 c 0 -13.7 1.4 -27.1 4 -40 h 77.7 c -1 13.1 -1.7 26.3 -1.7 40 s 0.7 26.9 1.7 40 H 52 c -2.6 -12.9 -4 -26.3 -4 -40 Z m 20.7 88 h 67.2 c 6.7 36.5 17.5 68.8 31.2 94.7 c -42.9 -19 -77.7 -52.7 -98.4 -94.7 Z m 67.2 -176 H 68.7 c 20.7 -42 55.5 -75.7 98.4 -94.7 c -13.7 25.9 -24.5 58.2 -31.2 94.7 Z M 248 456 c -18.6 0 -48.6 -41.2 -63.2 -112 h 126.5 c -14.7 70.8 -44.7 112 -63.3 112 Z m 70.1 -160 H 177.9 c -1.1 -12.8 -1.9 -26 -1.9 -40 s 0.8 -27.2 1.9 -40 h 140.3 c 1.1 12.8 1.9 26 1.9 40 s -0.9 27.2 -2 40 Z m 10.8 142.7 c 13.7 -25.9 24.4 -58.2 31.2 -94.7 h 67.2 c -20.7 42 -55.5 75.7 -98.4 94.7 Z M 366.3 296 c 1 -13.1 1.7 -26.3 1.7 -40 s -0.7 -26.9 -1.7 -40 H 444 c 2.6 12.9 4 26.3 4 40 s -1.4 27.1 -4 40 h -77.7 Z" /></svg>